<?xml version="1.0" standalone="no"?>
<!DOCTYPE svg PUBLIC "-//W3C//DTD SVG 20010904//EN"
 "http://www.w3.org/TR/2001/REC-SVG-20010904/DTD/svg10.dtd">
<svg version="1.0" xmlns="http://www.w3.org/2000/svg"
 width="558.000000pt" height="452.000000pt" viewBox="0 0 558.000000 452.000000"
 preserveAspectRatio="xMidYMid meet">

<g transform="translate(0.000000,452.000000) scale(0.100000,-0.100000)"
fill="#000000" stroke="none">
<path d="M2580 4131 c-30 -10 -79 -32 -107 -50 l-53 -33 -57 22 c-167 62 -354
17 -488 -119 -65 -66 -84 -93 -129 -181 -68 -133 -97 -250 -105 -425 l-6 -130
-66 -10 c-79 -12 -99 -26 -99 -70 0 -18 18 -203 41 -410 22 -207 39 -381 37
-386 -2 -5 -37 -24 -78 -42 -220 -96 -427 -298 -535 -520 -90 -188 -99 -317
-21 -317 32 0 53 27 61 80 33 206 200 443 407 577 82 53 170 95 179 85 4 -4
21 -144 38 -312 18 -168 43 -406 57 -528 13 -123 24 -228 24 -233 0 -5 10 -15
23 -24 21 -13 60 -11 402 25 209 22 385 38 391 36 7 -3 20 -39 29 -82 49 -218
-28 -402 -203 -482 -138 -64 -286 -54 -463 30 -59 27 -115 48 -125 46 -29 -5
-174 -205 -174 -239 0 -33 38 -64 68 -55 10 3 43 40 73 81 30 41 60 75 67 75
7 0 34 -11 60 -24 65 -33 139 -53 238 -67 202 -27 421 73 519 237 48 81 68
161 67 274 0 61 -7 128 -16 160 -8 30 -12 58 -8 61 4 3 106 16 228 29 l220 23
88 -36 c120 -49 166 -78 248 -155 117 -111 171 -204 211 -362 21 -85 22 -128
14 -429 -2 -50 2 -66 14 -74 12 -8 65 -5 185 10 135 16 170 24 181 39 20 28
16 62 -11 79 -24 16 -78 13 -222 -10 l-32 -5 5 127 c14 343 -112 618 -357 786
l-82 56 44 5 c23 3 108 13 188 21 182 19 189 21 201 48 7 16 -2 127 -30 387
-21 201 -38 366 -36 368 2 2 20 -5 42 -16 21 -11 72 -31 113 -43 66 -21 95
-24 235 -24 148 0 166 3 245 29 106 35 204 91 257 149 51 55 60 80 39 112 -27
41 -64 33 -114 -25 -105 -122 -375 -190 -578 -145 -89 19 -184 61 -230 102
l-31 28 -58 550 c-46 452 -60 554 -75 575 -16 23 -22 25 -92 22 l-75 -4 -12
59 c-66 338 -280 614 -526 678 -77 20 -176 18 -245 -4z m285 -136 c39 -19 93
-55 122 -80 66 -58 152 -187 193 -288 38 -95 73 -228 63 -238 -5 -4 -75 -14
-158 -23 -82 -9 -166 -19 -186 -22 l-36 -5 -27 113 c-42 180 -136 356 -251
476 l-52 53 23 16 c79 51 201 51 309 -2z m-560 -25 l26 -10 -29 -42 c-61 -89
-114 -216 -143 -343 -6 -27 -14 -108 -18 -180 l-6 -130 -150 -17 c-82 -9 -169
-17 -192 -17 l-43 -1 0 74 c0 145 46 327 111 443 59 104 149 184 247 219 44
16 160 18 197 4z m198 -128 c101 -102 174 -231 216 -383 18 -64 27 -129 19
-129 -2 0 -108 -11 -236 -25 -128 -14 -238 -25 -244 -25 -14 0 -3 190 16 280
21 98 71 220 117 284 22 31 44 56 48 56 4 0 33 -26 64 -58z m992 -1097 c69
-659 133 -1319 129 -1323 -5 -6 -1307 -142 -1312 -137 -9 8 -209 1852 -202
1858 9 8 1315 143 1322 137 4 -3 33 -244 63 -535z m-1453 -121 c26 -247 65
-631 88 -854 22 -223 42 -428 45 -456 l6 -51 -186 -18 c-107 -10 -190 -14
-194 -9 -11 13 -127 1001 -118 1010 2 2 48 9 103 16 57 6 106 18 117 26 26 23
22 68 -9 88 -22 15 -36 16 -121 5 -53 -6 -99 -9 -102 -5 -7 6 -80 657 -74 663
2 3 38 -10 81 -29 120 -52 134 -51 222 14 41 30 80 54 85 52 6 -1 31 -203 57
-452z"/>
<path d="M3045 3150 c-56 -9 -108 -36 -155 -81 -31 -30 -40 -46 -40 -73 0 -18
6 -38 13 -43 32 -25 48 -22 91 17 45 42 101 70 138 70 42 0 108 -41 139 -86
23 -34 36 -44 58 -44 32 0 61 27 61 57 0 22 -42 84 -81 120 -52 48 -149 75
-224 63z"/>
<path d="M2430 3104 c-86 -37 -160 -127 -160 -194 0 -43 15 -60 50 -60 34 0
44 8 68 55 24 49 46 69 95 90 50 21 95 12 157 -31 55 -37 81 -42 104 -18 41
41 -2 112 -94 153 -55 25 -168 28 -220 5z"/>
<path d="M3034 2901 c-44 -27 -68 -83 -68 -156 2 -216 243 -239 271 -26 13 95
-58 201 -133 201 -22 0 -53 -9 -70 -19z m54 -82 c18 -32 1 -79 -27 -79 -38 0
-55 65 -25 95 20 20 35 15 52 -16z m102 -124 c0 -26 -24 -50 -40 -40 -14 9
-13 72 3 78 18 7 37 -12 37 -38z"/>
<path d="M2525 2863 c-63 -17 -105 -87 -105 -174 1 -180 176 -246 250 -94 39
81 15 199 -50 246 -29 21 -66 29 -95 22z m17 -98 c17 -37 0 -80 -31 -80 -30 0
-46 40 -32 78 14 35 47 36 63 2z m96 -118 c4 -33 -13 -58 -34 -50 -14 5 -20
64 -7 77 15 15 38 0 41 -27z"/>
<path d="M2519 2323 c-8 -10 -22 -34 -33 -54 -24 -49 -56 -65 -127 -61 -53 2
-60 0 -75 -23 -20 -31 -12 -70 19 -87 12 -6 49 -13 83 -14 60 -1 61 -2 110
-54 129 -139 317 -202 494 -166 152 32 296 132 368 258 36 63 41 107 13 132
-32 29 -63 16 -96 -39 -16 -27 -59 -80 -95 -116 -90 -91 -148 -113 -290 -114
-94 0 -111 3 -164 28 -64 30 -140 87 -156 117 -8 14 -4 30 15 66 32 60 33 107
3 128 -29 21 -52 20 -69 -1z"/>
</g>
</svg>
